<svg xmlns="http://www.w3.org/2000/svg" xmlns:xlink="http://www.w3.org/1999/xlink" version="1.1" width="3256.211971487184" height="3342.759154893388" viewBox="0 0 3256.211971487184 3342.759154893388">
			
    <g transform="scale(17.13795774466939) translate(10, 10)">
        <defs id="SvgjsDefs1331"/><g id="SvgjsG1332" featureKey="aMgJeN-0" transform="matrix(1.5328606295777827,0,0,1.5328606295777827,8.35697144481049,-12.262885036622261)" fill="#000"><g xmlns="http://www.w3.org/2000/svg"><path d="M51.127327,47.1570244c2.9872284-4.6977692,8.7930946-9.7151604,19.3871231-12.4580078   c-4.0157623,1.2158775-13.5799446,6.2316284-17.8234596,14.469799   c17.6949501,6.1040001,19.0542107-14.6902275,25.9734764-17.2918854   C51.9481201,27.6704884,49.6557503,38.3105583,51.127327,47.1570244z"/><path d="M47.3089714,51.8565979c-4.2434616-8.2381706-13.8076439-13.2539215-17.8234043-14.469799   c10.5940266,2.7428474,16.3998394,7.7602386,19.3870678,12.4580078   c1.4715767-8.8464661-0.8207932-19.4865341-27.5371437-15.2800941   C28.2547607,37.1663704,29.6140175,57.960598,47.3089714,51.8565979z"/><path d="M48.2365036,37.9977722c0.1417961-5.4719734,0.9762039-12.9312363,0.9762039-12.9312363   s0.8344078,7.4592628,0.9762039,12.9312363c2.8890152-1.1615219,5.0955315-7.3891068,5.0955315-14.9004841   C55.2844429,14.7592669,49.2127075,8,49.2127075,8s-6.0717354,6.7592669-6.0717354,15.0972881   C43.1409721,30.6086655,45.3474884,36.8362503,48.2365036,37.9977722z"/><path d="M80.1723557,72.0729904c-1.3388062,3.0643845-3.2082596,5.4432068-5.43927,7.2965775   c5.0342865-5.584671,7.5196304-11.9494019,7.822525-15.7112122c0.1164169-1.4465866-0.5110168-2.3926048-1.0633698-2.9343491   c-0.2764206-0.2711716-0.7304535-0.0774841-0.7556076,0.3089066c-0.1606598,2.4668617-1.8137894,6.1522827-3.3522415,9.1045685   c2.4154053-5.576416,3.0185089-11.5123215,3.0185089-11.5123215c0.4634933-2.8766594,1.2655869-6.8368073,1.6651535-8.7669563   c0.1319504-0.6371651-0.2774048-1.259407-0.9164352-1.382061c-2.0421371-0.3919106-5.3855133-0.2795944-6.2125473,10.1592445   c-1.01754,12.8430901-14.6734924,18.8085747-14.6734924,18.8085747c4.1103668-2.0549927,6.1652985-13.5055199,6.1652985-13.5055199   c-0.4025726-5.3642998-8.6662292-10.961113-12.276516-13.1606331c-0.7133942-0.4346199-1.6206398,0.1606064-1.5050392,0.9879608   c1.0254707,7.3371582,6.4301834,6.1993675,7.7880173,11.6311455c1.4682961,5.8713264-13.2311745,15.7707634-17.0476151,12.8346672   c-3.8169327-2.9360428,1.031105-11.7073212,1.031105-11.7073212c3.7709465-5.5510445,3.3806725-9.1770248,2.6073418-11.071682   c-0.2512665-0.6156235-1.1302414-0.6358566-1.4061737-0.0308952c-1.8202896,3.9912071-8.984539,12.2404785-8.984539,12.2404785   c-2.7801971,2.6553574-5.0475769,5.2492447-6.9074039,7.7205429l0.0031719-0.0075455   c0,0-12.1952019,3.772583-12.3444881,11.6865921c-0.0952568,5.048233,0.7280521,4.4349594,1.8870583,5.9734726   c0.8426132,1.1185379,2.4402332,1.2841187,3.5210991,0.3937149c4.8177986-3.9690628,17.6769619-2.666893,17.6769619-2.666893   c5.3342247,0.7408447,12.8692818,0.8301468,19.9910431-1.0819016c9.2781868-1.3069839,17.9485207-4.9121857,22.0283165-14.2505798   C83.1789398,71.8599396,80.8639297,70.4900742,80.1723557,72.0729904z"/></g></g><g id="SvgjsG1333" featureKey="8L6ael-0" transform="matrix(1.7483238022125842,0,0,1.7483238022125842,-2.8322843595046057,140.2583826562686)" fill="#000"><path d="M3.84 5 q0.28 0 0.49 0.21 t0.21 0.49 l0 13.4 q0 0.28 -0.21 0.49 t-0.49 0.21 l-1.52 0 q-0.28 0 -0.49 -0.21 t-0.21 -0.49 l0 -13.4 q0 -0.28 0.21 -0.49 t0.49 -0.21 l1.52 0 z M11.14 16.94 q0.3 0 0.5 0.21 t0.2 0.49 l0 1.46 q0 0.28 -0.2 0.49 t-0.5 0.21 l-4.66 0 q-0.3 0 -0.5 -0.21 t-0.2 -0.49 l0 -1.46 q0 -0.28 0.2 -0.49 t0.5 -0.21 l4.66 0 z M27.292 5.16 q0.24 0.2 0.24 0.54 l0 1.5 q0 0.26 -0.15 0.45 t-0.41 0.25 q-1.28 0.26 -2.18 1.22 q-1.22 1.28 -1.22 3.33 t1.22 3.35 q0.9 0.94 2.18 1.2 q0.26 0.06 0.41 0.25 t0.15 0.45 l0 1.5 q0 0.32 -0.24 0.54 q-0.22 0.16 -0.46 0.16 l-0.12 0 q-2.32 -0.38 -3.98 -2.1 q-2.08 -2.14 -2.08 -5.33 t2.08 -5.37 q1.62 -1.68 3.98 -2.08 q0.32 -0.06 0.58 0.14 z M33.572 7.1 q2.08 2.18 2.08 5.37 t-2.08 5.33 q-1.66 1.72 -3.98 2.1 l-0.12 0 q-0.24 0 -0.46 -0.16 q-0.24 -0.22 -0.24 -0.54 l0 -1.5 q0 -0.26 0.15 -0.45 t0.41 -0.25 q1.28 -0.26 2.18 -1.2 q1.22 -1.3 1.22 -3.35 t-1.22 -3.33 q-0.9 -0.96 -2.18 -1.22 q-0.26 -0.06 -0.41 -0.25 t-0.15 -0.45 l0 -1.5 q0 -0.34 0.25 -0.54 t0.57 -0.14 q2.36 0.4 3.98 2.08 z M49.288000000000004 14.1 l3.02 4.62 q0.22 0.36 0.02 0.72 q-0.08 0.16 -0.25 0.26 t-0.35 0.1 l-1.82 0 q-0.18 0 -0.34 -0.09 t-0.24 -0.23 l-3.04 -4.82 l-3.56 0 l0 4.44 q0 0.28 -0.21 0.49 t-0.49 0.21 l-1.52 0 q-0.28 0 -0.49 -0.21 t-0.21 -0.49 l0 -6.58 q0 -0.28 0.21 -0.49 t0.49 -0.21 l6.16 0 q1.76 0 2.34 -1 q0.2 -0.32 0.2 -0.92 q0 -0.94 -0.62 -1.48 q-0.64 -0.58 -1.84 -0.58 l-6.24 0 q-0.28 0 -0.49 -0.21 t-0.21 -0.49 l0 -1.44 q0 -0.28 0.21 -0.49 t0.49 -0.21 l6.42 0 q2.34 0 3.74 1.32 q1.46 1.32 1.46 3.58 q0 1.46 -0.64 2.49 t-1.86 1.57 z M67.06400000000001 16.96 q0.3 0 0.5 0.21 t0.2 0.51 l0 1.46 q0 0.28 -0.2 0.49 t-0.5 0.21 l-9.88 0 q-0.28 0 -0.49 -0.21 t-0.21 -0.49 l0 -1.46 q0 -0.3 0.21 -0.51 t0.49 -0.21 l9.88 0 z M57.184000000000005 13.86 q-0.28 0 -0.49 -0.21 t-0.21 -0.49 l0 -1.5 q0 -0.28 0.21 -0.49 t0.49 -0.21 l8.98 0 q0.3 0 0.51 0.21 t0.21 0.49 l0 1.5 q0 0.28 -0.21 0.49 t-0.51 0.21 l-8.98 0 z M67.06400000000001 5 q0.3 0 0.5 0.21 t0.2 0.49 l0 1.46 q0 0.3 -0.2 0.51 t-0.5 0.21 l-9.88 0 q-0.28 0 -0.49 -0.21 t-0.21 -0.51 l0 -1.46 q0 -0.28 0.21 -0.49 t0.49 -0.21 l9.88 0 z M85.10000000000001 18.86 q0.14 0.32 -0.07 0.65 t-0.57 0.33 l-13.32 0 q-0.18 0 -0.34 -0.09 t-0.24 -0.23 q-0.22 -0.32 -0.06 -0.66 l0.62 -1.46 q0.08 -0.2 0.26 -0.32 t0.38 -0.12 l9.32 0 l-3.28 -7.84 l-2.68 6.4 q-0.08 0.2 -0.25 0.31 t-0.39 0.11 l-1.68 0 q-0.38 0 -0.6 -0.32 q-0.08 -0.14 -0.1 -0.32 t0.04 -0.34 l4.06 -9.52 q0.08 -0.2 0.25 -0.32 t0.39 -0.12 l1.92 0 q0.22 0 0.39 0.12 t0.25 0.32 z M90.85600000000001 5 q0.28 0 0.49 0.21 t0.21 0.49 l0 13.4 q0 0.28 -0.21 0.49 t-0.49 0.21 l-1.52 0 q-0.28 0 -0.49 -0.21 t-0.21 -0.49 l0 -13.4 q0 -0.28 0.21 -0.49 t0.49 -0.21 l1.52 0 z M98.156 16.94 q0.3 0 0.5 0.21 t0.2 0.49 l0 1.46 q0 0.28 -0.2 0.49 t-0.5 0.21 l-4.66 0 q-0.3 0 -0.5 -0.21 t-0.2 -0.49 l0 -1.46 q0 -0.28 0.2 -0.49 t0.5 -0.21 l4.66 0 z"/></g>
    </g>
</svg>
